<?xml version="1.0" standalone="no"?><!DOCTYPE svg PUBLIC "-//W3C//DTD SVG 1.1//EN" "http://www.w3.org/Graphics/SVG/1.1/DTD/svg11.dtd"><svg class="icon" height="512" viewBox="0 0 1024 1024" version="1.1" xmlns="http://www.w3.org/2000/svg"><path d="M331.851852 596.701235H185.204938c-10.11358 0-18.330864-8.217284-18.330864-18.330865V431.723457c0-10.11358 8.217284-18.330864 18.330864-18.330864h146.646914c10.11358 0 18.330864 8.217284 18.330864 18.330864v146.646913c0 10.11358-8.217284 18.330864-18.330864 18.330865z m-128.31605-36.661729h109.985186V450.054321H203.535802v109.985185zM582.162963 596.701235H435.516049c-10.11358 0-18.330864-8.217284-18.330864-18.330865V431.723457c0-10.11358 8.217284-18.330864 18.330864-18.330864h146.646914c10.11358 0 18.330864 8.217284 18.330864 18.330864v146.646913c0 10.11358-8.217284 18.330864-18.330864 18.330865z m-128.316049-36.661729h109.985185V450.054321H453.846914v109.985185zM838.795062 596.701235h-146.646914c-10.11358 0-18.330864-8.217284-18.330864-18.330865V431.723457c0-10.11358 8.217284-18.330864 18.330864-18.330864h146.646914c10.11358 0 18.330864 8.217284 18.330864 18.330864v146.646913c0 10.11358-8.217284 18.330864-18.330864 18.330865z m-128.31605-36.661729h109.985186V450.054321h-109.985186v109.985185z" fill="#898989" /><path d="M331.851852 850.804938H185.204938c-10.11358 0-18.330864-8.217284-18.330864-18.330864v-146.646914c0-10.11358 8.217284-18.330864 18.330864-18.330864h146.646914c10.11358 0 18.330864 8.217284 18.330864 18.330864v146.646914c0 10.11358-8.217284 18.330864-18.330864 18.330864z m-128.31605-36.661728h109.985186v-109.985185H203.535802v109.985185zM582.162963 850.804938H435.516049c-10.11358 0-18.330864-8.217284-18.330864-18.330864v-146.646914c0-10.11358 8.217284-18.330864 18.330864-18.330864h146.646914c10.11358 0 18.330864 8.217284 18.330864 18.330864v146.646914c0 10.11358-8.217284 18.330864-18.330864 18.330864z m-128.316049-36.661728h109.985185v-109.985185H453.846914v109.985185zM838.795062 850.804938h-146.646914c-10.11358 0-18.330864-8.217284-18.330864-18.330864v-146.646914c0-10.11358 8.217284-18.330864 18.330864-18.330864h146.646914c10.11358 0 18.330864 8.217284 18.330864 18.330864v146.646914c0 10.11358-8.217284 18.330864-18.330864 18.330864z m-128.31605-36.661728h109.985186v-109.985185h-109.985186v109.985185z" fill="#898989" /><path d="M931.081481 1017.679012H92.918519c-36.661728 0-67.002469-30.340741-67.00247-67.002469V139.693827c0-36.661728 30.340741-67.002469 67.00247-67.002469h838.162962c36.661728 0 67.002469 30.340741 67.00247 67.002469v810.982716c0 36.661728-30.340741 67.002469-67.00247 67.002469zM92.918519 109.353086c-17.066667 0-30.340741 13.906173-30.340741 30.340741v810.982716c0 17.066667 13.906173 30.340741 30.340741 30.340741h838.162962c17.066667 0 30.340741-13.906173 30.340741-30.340741V139.693827c0-17.066667-13.906173-30.340741-30.340741-30.340741H92.918519z" fill="#898989" /><path d="M979.753086 287.604938H44.246914c-10.11358 0-18.330864-8.217284-18.330865-18.330864 0-10.11358 8.217284-18.330864 18.330865-18.330864h935.506172c10.11358 0 18.330864 8.217284 18.330865 18.330864 0 10.11358-8.217284 18.330864-18.330865 18.330864z" fill="#898989" /><path d="M305.303704 192.790123c-10.11358 0-18.330864-8.217284-18.330864-18.330864V24.651852c0-10.11358 8.217284-18.330864 18.330864-18.330864 10.11358 0 18.330864 8.217284 18.330864 18.330864v149.807407c0 10.11358-8.217284 18.330864-18.330864 18.330864zM718.696296 192.790123c-10.11358 0-18.330864-8.217284-18.330864-18.330864V24.651852c0-10.11358 8.217284-18.330864 18.330864-18.330864 10.11358 0 18.330864 8.217284 18.330864 18.330864v149.807407c0 10.11358-8.217284 18.330864-18.330864 18.330864z" fill="#898989" /></svg>