<?xml version="1.0" encoding="UTF-8"?>
<svg width="107px" height="42px" viewBox="0 0 107 42" version="1.1" xmlns="http://www.w3.org/2000/svg" xmlns:xlink="http://www.w3.org/1999/xlink">
    <!-- Generator: sketchtool 55.2 (78181) - https://sketchapp.com -->
    <title>00AEFC83-AFEE-4C91-BDC7-C130616583DC@2x</title>
    <desc>Created with sketchtool.</desc>
    <g id="1-Log-in-&amp;-Sign-up" stroke="none" stroke-width="1" fill="none" fill-rule="evenodd">
        <g id="Home-page-4" transform="translate(-180.000000, -166.000000)" fill-rule="nonzero">
            <g id="Group">
                <g id="Wealth-registrar-logo" transform="translate(180.000000, 163.000000)">
                    <g id="Wealth-logotype" transform="translate(0.000000, 3.000000)">
                        <path d="M38.2067175,30.2900989 C39.1918662,31.0073519 40.3309425,31.3653654 41.6372611,31.3653654 C43.1245447,31.3653654 44.4677413,30.8966812 45.6809942,29.9529797 L46.0809724,29.6418656 L47.3224569,31.8968143 L46.9985797,32.1222046 C46.18356,32.6893872 45.2978937,33.1220527 44.3429743,33.4196301 C43.3890535,33.7168964 42.4330247,33.8658579 41.4761735,33.8658579 C39.8485439,33.8658579 38.3944011,33.5168311 37.1202832,32.8168505 C35.8412803,32.1141862 34.8427045,31.1281419 34.1314441,29.8649651 C33.4221432,28.6052683 33.068102,27.1762537 33.068102,25.5853567 C33.068102,23.9925304 33.4634509,22.4893959 34.2518513,21.0829701 C35.0402486,19.67655 36.1397195,18.5386555 37.5447725,17.6737963 C38.9566969,16.8047076 40.5520462,16.3701973 42.3218834,16.3701973 C44.3530144,16.3701973 46.0627592,16.9452834 47.432755,18.0973055 C48.8025142,19.2491287 49.7091295,20.9358678 50.1573175,23.1406096 L50.2361287,23.5283001 L36.3220006,27.8982164 C36.7153768,28.8655198 37.3417612,29.6603538 38.2067175,30.2900989 Z M45.2703037,19.8500321 C44.4363549,19.1693944 43.4458264,18.8300525 42.2816114,18.8300525 C41.0709204,18.8300525 39.9807303,19.1272011 39.0023225,19.7221039 C38.0188678,20.3200753 37.2460205,21.1189561 36.6786918,22.1239703 C36.1119424,23.1279582 35.8293515,24.2115472 35.8293515,25.3821701 C35.8293515,25.4495071 35.829866,25.5129684 35.830872,25.572465 L46.9445822,22.0959539 C46.5640941,21.1980169 46.0068923,20.4512081 45.2703037,19.8500321 Z M67.8765793,16.8172078 L70.3831985,16.8172078 L68.3861858,33.5813967 L65.6156003,33.5813967 L65.9077302,31.2526302 C65.2850006,31.8309076 64.5446836,32.340502 63.6881517,32.7816569 C62.3370462,33.477541 60.8463262,33.8252206 59.2216763,33.8252206 C57.801654,33.8252206 56.5029238,33.4723898 55.3339368,32.7675106 C54.1664954,32.0635633 53.2399755,31.0854861 52.5589163,29.8398658 C51.8785886,28.5955834 51.5384988,27.2157313 51.5384988,25.7072686 C51.5384988,24.286266 51.8755322,22.8550476 52.5462458,21.416849 C53.2231747,19.9653231 54.2462168,18.7550114 55.6094513,17.7906704 C56.9884966,16.8151451 58.6798388,16.32956 60.6714648,16.32956 C62.4153796,16.32956 63.9324468,16.7373051 65.2131525,17.5557784 C66.1103766,18.1291763 66.8357339,18.8426306 67.3862484,19.6931161 L67.8765793,16.8172078 Z M64.9318606,20.323061 C63.8316873,19.3264439 62.4991232,18.8300525 60.9130968,18.8300525 C59.4168855,18.8300525 58.1912215,19.1897298 57.2229139,19.9037597 C56.2357666,20.6316821 55.5196262,21.5064549 55.067862,22.5321472 C54.608177,23.5758234 54.380293,24.5658933 54.380293,25.5040821 C54.380293,26.5949277 54.6300976,27.584307 55.1299627,28.4796182 C55.628746,29.3729919 56.3181029,30.0748705 57.2039875,30.5910795 C58.0893286,31.1069717 59.0948727,31.3653654 60.2284745,31.3653654 C61.7669547,31.3653654 63.1202104,30.8848996 64.304572,29.9186419 C65.4873969,28.9536382 66.2256491,27.7162621 66.5220255,26.2304612 L66.759246,23.9564182 C66.6267245,22.5143875 66.0212325,21.3098934 64.9318606,20.323061 Z M79.2127389,1.82203965 L75.3199298,33.5813967 L72.5527231,33.5813967 L76.4041193,1.82203965 L79.2127389,1.82203965 Z M83.9418466,9.82759011 L86.7521849,9.82759011 L85.8662031,17.0203943 L90.781283,17.0203943 L90.4687527,19.4802495 L85.5583046,19.4802495 L83.8668847,33.5813967 L81.0993162,33.5813967 L82.7907361,19.4802495 L79.4044049,19.4802495 L79.7169352,17.0203943 L83.0961366,17.0203943 L83.9418466,9.82759011 Z M97.1612825,17.4163799 C98.4726249,16.7191884 99.8913278,16.3701973 101.411266,16.3701973 C103.002669,16.3701973 104.260472,16.8554858 105.153682,17.8319096 C106.04709,18.8085509 106.418951,20.0768459 106.272182,21.6155093 L104.815901,33.5813967 L102.049722,33.5813967 L102.107706,33.0920358 L103.435113,21.8917218 C103.506471,21.0276505 103.310962,20.337161 102.852329,19.7933769 C102.401225,19.2585201 101.726752,18.9759012 100.807188,18.9519644 C99.750144,18.9519644 98.7592483,19.1987719 97.8284096,19.6938004 C96.8943153,20.1905601 96.1129551,20.8772746 95.4806584,21.7577615 C94.8532194,22.6314838 94.4777353,23.6102858 94.3516167,24.7046261 L93.2572593,33.5813967 L90.4903255,33.5813967 L94.3417217,1.82203965 L97.1097571,1.82203965 L95.0162197,18.9911748 C95.6244808,18.3781495 96.3399973,17.8530263 97.1612825,17.4163799 Z" id="ealth.ng" fill="#0246A6"></path>
                        <path d="M0,38.3015059 C8.96010843,36.4935384 20.9023553,36.1979804 31.3865694,38.7074241 C33.8632461,39.3002277 33.1756019,42.2801066 31.0966663,41.599209 C23.038435,38.9599591 9.06985366,37.9969527 0,38.3015059 Z" id="Shape-Copy" fill="#FFCA06"></path>
                        <path d="M33.7269041,5.53508386 L31.4332767,5.53508386 C31.1726488,5.53508386 30.9613681,5.32188612 30.9613681,5.05889338 C30.9613681,4.91346575 31.027225,4.77601013 31.1401769,4.68568585 L36.5866778,0.330283392 C36.7909413,0.166940091 37.0877547,0.201614885 37.2496292,0.407731712 C37.3157212,0.491887424 37.3516862,0.596113267 37.3516862,0.703490921 L37.3516862,7.16384093 C37.3516862,7.42683367 37.1404055,7.6400314 36.8797776,7.6400314 C36.7489648,7.6400314 36.6240208,7.58524023 36.5347698,7.48873649 L34.9668928,5.79345129 L25.9672951,33.4328959 C25.7953925,33.9294556 25.2571163,34.1913777 24.7650217,34.0179153 C24.561994,33.9463484 24.389276,33.8069613 24.2754631,33.6228311 L17.7244202,23.0243424 L11.7741899,32.2392177 C11.4896269,32.6799086 10.9049048,32.8043821 10.4681766,32.5172371 C10.3168297,32.4177279 10.1969614,32.2764824 10.1228043,32.1102716 L3.71059778,17.7383726 C3.60360358,17.4985628 3.7095238,17.2166356 3.94717722,17.1086706 C4.15616306,17.0137291 4.40253647,17.0840329 4.53129892,17.2753523 L11.5553843,25.5465651 L17.1921236,14.7620149 C17.4260623,14.2919769 17.9933219,14.1023013 18.4591333,14.3383627 C18.6279159,14.4238974 18.7673845,14.5585637 18.8595016,14.7249452 L24.3942652,24.3286036 L33.7269041,5.53508386 Z" id="Combined-Shape" fill="#0246A6"></path>
                    </g>
                </g>
            </g>
        </g>
    </g>
</svg>